{
    "accessors" : [
        {
            "bufferView" : 0, 
            "componentType" : 5121, 
            "count" : 18, 
            "max" : [
                11
            ], 
            "min" : [
                0
            ], 
            "type" : "SCALAR"
        }, 
        {
            "bufferView" : 1, 
            "componentType" : 5126, 
            "count" : 12, 
            "max" : [
                1.0000004768371582, 
                1.0, 
                1.0000005960464478
            ], 
            "min" : [
                -1.0000003576278687, 
                -1.0, 
                -1.0000003576278687
            ], 
            "type" : "VEC3"
        }, 
        {
            "bufferView" : 2, 
            "componentType" : 5126, 
            "count" : 12, 
            "max" : [
                0.0, 
                1.0, 
                1.0
            ], 
            "min" : [
                -1.0, 
                -1.341104365337742e-07, 
                -2.2351744632942427e-07
            ], 
            "type" : "VEC3"
        }, 
        {
            "bufferView" : 3, 
            "componentType" : 5126, 
            "count" : 12, 
            "max" : [
                1.0, 
                1.3427143130684271e-07, 
                2.8312211952652433e-07, 
                1.0
            ], 
            "min" : [
                2.3841856489070778e-07, 
                -2.9802322387695312e-08, 
                -1.0, 
                1.0
            ], 
            "type" : "VEC4"
        }, 
        {
            "bufferView" : 4, 
            "componentType" : 5126, 
            "count" : 12, 
            "max" : [
                1.9994008541107178, 
                1.999400556087494
            ], 
            "min" : [
                -0.999400794506073, 
                0.000599205493927002
            ], 
            "type" : "VEC2"
        }, 
        {
            "bufferView" : 5, 
            "componentType" : 5121, 
            "count" : 18, 
            "max" : [
                11
            ], 
            "min" : [
                0
            ], 
            "type" : "SCALAR"
        }, 
        {
            "bufferView" : 6, 
            "componentType" : 5126, 
            "count" : 12, 
            "max" : [
                1.0000004768371582, 
                1.0, 
                1.0000005960464478
            ], 
            "min" : [
                -1.0000001192092896, 
                -1.0, 
                -1.0000003576278687
            ], 
            "type" : "VEC3"
        }, 
        {
            "bufferView" : 7, 
            "componentType" : 5126, 
            "count" : 12, 
            "max" : [
                1.0, 
                2.086162567138672e-07, 
                2.8312206268310547e-07
            ], 
            "min" : [
                0.0, 
                -1.0, 
                -1.0
            ], 
            "type" : "VEC3"
        }, 
        {
            "bufferView" : 8, 
            "componentType" : 5126, 
            "count" : 12, 
            "max" : [
                1.0, 
                1.4919049817763153e-07, 
                2.384185791015625e-07, 
                1.0
            ], 
            "min" : [
                8.951427332704043e-08, 
                -5.967619642888167e-08, 
                -1.0, 
                1.0
            ], 
            "type" : "VEC4"
        }, 
        {
            "bufferView" : 9, 
            "componentType" : 5126, 
            "count" : 12, 
            "max" : [
                0.9994007349014282, 
                1.999400556087494
            ], 
            "min" : [
                -0.999400794506073, 
                -0.9994006156921387
            ], 
            "type" : "VEC2"
        }, 
        {
            "bufferView" : 10, 
            "componentType" : 5121, 
            "count" : 144, 
            "max" : [
                53
            ], 
            "min" : [
                0
            ], 
            "type" : "SCALAR"
        }, 
        {
            "bufferView" : 11, 
            "componentType" : 5126, 
            "count" : 54, 
            "max" : [
                0.9999999403953552, 
                1.0, 
                0.9999999403953552
            ], 
            "min" : [
                -1.0, 
                -1.0, 
                -0.9999999403953552
            ], 
            "type" : "VEC3"
        }, 
        {
            "bufferView" : 12, 
            "componentType" : 5126, 
            "count" : 54, 
            "max" : [
                1.0, 
                1.0, 
                1.0
            ], 
            "min" : [
                -1.0, 
                -1.0, 
                -1.0
            ], 
            "type" : "VEC3"
        }, 
        {
            "bufferView" : 13, 
            "componentType" : 5126, 
            "count" : 54, 
            "max" : [
                1.0, 
                0.7070834636688232, 
                0.705441951751709, 
                1.0
            ], 
            "min" : [
                -0.7054420709609985, 
                -0.7054420709609985, 
                -1.0, 
                1.0
            ], 
            "type" : "VEC4"
        }, 
        {
            "bufferView" : 14, 
            "componentType" : 5126, 
            "count" : 54, 
            "max" : [
                1.9994008541107178, 
                1.999400556087494
            ], 
            "min" : [
                -0.999400794506073, 
                -0.9994006156921387
            ], 
            "type" : "VEC2"
        }
    ], 
    "asset" : {
        "generator" : "Khronos Blender glTF 2.0 exporter", 
        "version" : "2.0"
    }, 
    "bufferViews" : [
        {
            "buffer" : 0, 
            "byteLength" : 18, 
            "byteOffset" : 0, 
            "target" : 34963
        }, 
        {
            "buffer" : 0, 
            "byteLength" : 144, 
            "byteOffset" : 20, 
            "target" : 34962
        }, 
        {
            "buffer" : 0, 
            "byteLength" : 144, 
            "byteOffset" : 164, 
            "target" : 34962
        }, 
        {
            "buffer" : 0, 
            "byteLength" : 192, 
            "byteOffset" : 308, 
            "target" : 34962
        }, 
        {
            "buffer" : 0, 
            "byteLength" : 96, 
            "byteOffset" : 500, 
            "target" : 34962
        }, 
        {
            "buffer" : 0, 
            "byteLength" : 18, 
            "byteOffset" : 596, 
            "target" : 34963
        }, 
        {
            "buffer" : 0, 
            "byteLength" : 144, 
            "byteOffset" : 616, 
            "target" : 34962
        }, 
        {
            "buffer" : 0, 
            "byteLength" : 144, 
            "byteOffset" : 760, 
            "target" : 34962
        }, 
        {
            "buffer" : 0, 
            "byteLength" : 192, 
            "byteOffset" : 904, 
            "target" : 34962
        }, 
        {
            "buffer" : 0, 
            "byteLength" : 96, 
            "byteOffset" : 1096, 
            "target" : 34962
        }, 
        {
            "buffer" : 0, 
            "byteLength" : 144, 
            "byteOffset" : 1192, 
            "target" : 34963
        }, 
        {
            "buffer" : 0, 
            "byteLength" : 648, 
            "byteOffset" : 1336, 
            "target" : 34962
        }, 
        {
            "buffer" : 0, 
            "byteLength" : 648, 
            "byteOffset" : 1984, 
            "target" : 34962
        }, 
        {
            "buffer" : 0, 
            "byteLength" : 864, 
            "byteOffset" : 2632, 
            "target" : 34962
        }, 
        {
            "buffer" : 0, 
            "byteLength" : 432, 
            "byteOffset" : 3496, 
            "target" : 34962
        }
    ], 
    "buffers" : [
        {
            "byteLength" : 3928, 
            "uri" : "gltftest.bin"
        }
    ], 
    "images" : [
        {
            "uri" : "marble.png"
        }, 
        {
            "uri" : "randomtiles.png"
        }
    ], 
    "materials" : [
        {
            "name" : "marble", 
            "pbrMetallicRoughness" : {
                "baseColorTexture" : {
                    "index" : 0
                }
            }
        }, 
        {
            "name" : "randomtiles", 
            "pbrMetallicRoughness" : {
                "baseColorTexture" : {
                    "index" : 1
                }
            }
        }
    ], 
    "meshes" : [
        {
            "name" : "Cube", 
            "primitives" : [
                {
                    "attributes" : {
                        "NORMAL" : 2, 
                        "POSITION" : 1, 
                        "TANGENT" : 3, 
                        "TEXCOORD_0" : 4
                    }, 
                    "indices" : 0, 
                    "material" : 0
                }, 
                {
                    "attributes" : {
                        "NORMAL" : 7, 
                        "POSITION" : 6, 
                        "TANGENT" : 8, 
                        "TEXCOORD_0" : 9
                    }, 
                    "indices" : 5, 
                    "material" : 1
                }
            ]
        }, 
        {
            "name" : "Cube.001", 
            "primitives" : [
                {
                    "attributes" : {
                        "NORMAL" : 12, 
                        "POSITION" : 11, 
                        "TANGENT" : 13, 
                        "TEXCOORD_0" : 14
                    }, 
                    "indices" : 10, 
                    "material" : 1
                }
            ]
        }
    ], 
    "nodes" : [
        {
            "name" : "Camera", 
            "rotation" : [
                0.483536034822464, 
                0.33687159419059753, 
                -0.20870360732078552, 
                0.7804827094078064
            ], 
            "translation" : [
                7.481131553649902, 
                5.34366512298584, 
                6.5076398849487305
            ]
        }, 
        {
            "mesh" : 0, 
            "name" : "Cube"
        }, 
        {
            "mesh" : 0, 
            "name" : "Cube.001", 
            "scale" : [
                0.36486297845840454, 
                0.36486297845840454, 
                0.36486297845840454
            ], 
            "translation" : [
                -0.9970002770423889, 
                1.8246980905532837, 
                -1.749452829360962
            ]
        }, 
        {
            "mesh" : 0, 
            "name" : "Cube.002", 
            "rotation" : [
                0.0, 
                -0.4153253436088562, 
                -0.0, 
                0.9096729755401611
            ], 
            "scale" : [
                0.36486297845840454, 
                0.36486297845840454, 
                0.36486297845840454
            ], 
            "translation" : [
                0.9593773484230042, 
                1.8246980905532837, 
                0.9970003962516785
            ]
        }, 
        {
            "mesh" : 0, 
            "name" : "Cube.003", 
            "rotation" : [
                0.20527416467666626, 
                -0.3610508143901825, 
                0.44960495829582214, 
                0.790797233581543
            ], 
            "scale" : [
                0.36486294865608215, 
                0.36486297845840454, 
                0.36486294865608215
            ], 
            "translation" : [
                0.01881122589111328, 
                3.160301923751831, 
                0.03762310743331909
            ]
        }, 
        {
            "mesh" : 1, 
            "name" : "Cube.004", 
            "rotation" : [
                0.0, 
                -0.4153253436088562, 
                -0.0, 
                0.9096729755401611
            ], 
            "scale" : [
                0.36486297845840454, 
                0.36486297845840454, 
                0.36486297845840454
            ], 
            "translation" : [
                0.4637160897254944, 
                1.8720768690109253, 
                -0.624367356300354
            ]
        }, 
        {
            "name" : "Lamp", 
            "rotation" : [
                0.16907575726509094, 
                0.7558802962303162, 
                -0.27217137813568115, 
                0.570947527885437
            ], 
            "scale" : [
                1.0, 
                1.0, 
                0.9999999403953552
            ], 
            "translation" : [
                3.2465426921844482, 
                2.759514570236206, 
                2.3703651428222656
            ]
        }
    ], 
    "samplers" : [
        {}
    ], 
    "scene" : 0, 
    "scenes" : [
        {
            "name" : "Scene", 
            "nodes" : [
                5, 
                4, 
                3, 
                2, 
                1, 
                6, 
                0
            ]
        }
    ], 
    "textures" : [
        {
            "sampler" : 0, 
            "source" : 0
        }, 
        {
            "sampler" : 0, 
            "source" : 1
        }
    ]
}
